<svg width="16" height="16" viewBox="0 0 16 16" fill="none" xmlns="http://www.w3.org/2000/svg">
<path fill-rule="evenodd" clip-rule="evenodd" d="M12.0203 4.02018C12.2156 3.82492 12.2156 3.50833 12.0203 3.31307C11.825 3.11781 11.5085 3.11781 11.3132 3.31307L7.66675 6.95952L4.0203 3.31307C3.82504 3.11781 3.50846 3.11781 3.31319 3.31307C3.11793 3.50833 3.11793 3.82492 3.31319 4.02018L6.95964 7.66663L3.31319 11.3131C3.11793 11.5083 3.11793 11.8249 3.31319 12.0202C3.50846 12.2154 3.82504 12.2154 4.0203 12.0202L7.66675 8.37373L11.3132 12.0202C11.5085 12.2154 11.825 12.2154 12.0203 12.0202C12.2156 11.8249 12.2156 11.5083 12.0203 11.3131L8.37386 7.66663L12.0203 4.02018Z" fill="#787F85"/>
</svg>
