<svg width="24" height="24" viewBox="0 0 24 24" fill="none" xmlns="http://www.w3.org/2000/svg">
<g filter="url(#filter0_d_12_9065)">
<path d="M7.03477 15.4302C6.74213 15.054 6.37632 14.291 5.73878 13.3399C5.37298 12.8173 4.47415 11.8244 4.20241 11.3123C4.00651 11.0011 3.94967 10.6222 4.04563 10.2672C4.20968 9.59222 4.84994 9.14448 5.5402 9.22201C6.07407 9.32926 6.56468 9.59092 6.95116 9.97452C7.221 10.2287 7.46921 10.5049 7.69322 10.8002C7.86044 11.0092 7.90225 11.0928 8.09037 11.3332C8.2785 11.5736 8.40392 11.814 8.30986 11.4586C8.2367 10.9361 8.11128 10.0581 7.9336 9.27427C7.79773 8.67853 7.76638 8.58447 7.64096 8.13505C7.51554 7.68564 7.44238 7.30938 7.30651 6.79726C7.18231 6.29409 7.08463 5.78475 7.01387 5.27134C6.88213 4.61467 6.97797 3.93272 7.28561 3.3378C7.65078 2.99433 8.18646 2.90368 8.64431 3.10787C9.1048 3.4479 9.44813 3.92272 9.62675 4.46657C9.90065 5.13587 10.0834 5.83892 10.1702 6.55687C10.3375 7.60203 10.6615 9.12795 10.6719 9.4415C10.6719 9.05479 10.5987 8.23957 10.6719 7.87377C10.7444 7.49242 11.0094 7.17593 11.3722 7.03764C11.6834 6.94214 12.0127 6.92067 12.3337 6.97493C12.6577 7.04268 12.9448 7.22906 13.1385 7.49751C13.3806 8.10725 13.515 8.75441 13.5356 9.41014C13.5636 8.83592 13.6619 8.2673 13.8283 7.71699C14.0029 7.47091 14.258 7.29349 14.5494 7.21532C14.8949 7.15215 15.2491 7.15215 15.5946 7.21532C15.8779 7.31004 16.1258 7.48864 16.3053 7.72744C16.5266 8.28174 16.6606 8.86702 16.7024 9.4624C16.7024 9.60872 16.7756 9.05479 17.0055 8.68899C17.125 8.33426 17.4247 8.07022 17.7916 7.99634C18.1586 7.92245 18.5371 8.04994 18.7845 8.33079C19.032 8.61163 19.1108 9.00316 18.9913 9.35788C18.9913 10.0372 18.9913 10.0059 18.9913 10.4657C18.9913 10.9256 18.9913 11.3332 18.9913 11.7199C18.9532 12.3315 18.8694 12.9394 18.7405 13.5385C18.5586 14.0685 18.3054 14.5713 17.988 15.0331C17.4805 15.5974 17.0612 16.2352 16.7442 16.9248C16.6656 17.2674 16.6305 17.6186 16.6397 17.9699C16.6387 18.2946 16.6809 18.618 16.7651 18.9315C16.3378 18.9767 15.9069 18.9767 15.4796 18.9315C15.072 18.8688 14.5703 18.0536 14.4345 17.8027C14.3672 17.668 14.2296 17.5829 14.0791 17.5829C13.9286 17.5829 13.791 17.668 13.7237 17.8027C13.4938 18.1999 12.9817 18.921 12.6263 18.9628C11.9261 19.0464 10.4838 18.9628 9.34456 18.9628C9.34456 18.9628 9.53269 17.9177 9.10417 17.5414C8.67566 17.1652 8.2367 16.7262 7.9127 16.4336L7.03477 15.4302Z" fill="white"/>
<path fill-rule="evenodd" clip-rule="evenodd" d="M7.03477 15.4302C6.74213 15.054 6.37632 14.291 5.73878 13.3399C5.37298 12.8173 4.47415 11.8244 4.20241 11.3123C4.00651 11.0011 3.94967 10.6222 4.04563 10.2672C4.20968 9.59222 4.84994 9.14448 5.5402 9.22201C6.07407 9.32926 6.56468 9.59092 6.95116 9.97452C7.221 10.2287 7.46921 10.5049 7.69322 10.8002C7.86044 11.0092 7.90225 11.0928 8.09037 11.3332C8.2785 11.5736 8.40392 11.814 8.30986 11.4586C8.2367 10.9361 8.11128 10.0581 7.9336 9.27427C7.79773 8.67853 7.76638 8.58447 7.64096 8.13505C7.51554 7.68564 7.44238 7.30938 7.30651 6.79726C7.18231 6.29409 7.08463 5.78475 7.01387 5.27134C6.88213 4.61467 6.97797 3.93272 7.28561 3.3378C7.65078 2.99433 8.18646 2.90368 8.64431 3.10787C9.1048 3.4479 9.44813 3.92272 9.62675 4.46657C9.90065 5.13587 10.0834 5.83892 10.1702 6.55687C10.3375 7.60203 10.6615 9.12795 10.6719 9.4415C10.6719 9.05479 10.5987 8.23957 10.6719 7.87377C10.7444 7.49242 11.0094 7.17593 11.3722 7.03764C11.6834 6.94214 12.0127 6.92067 12.3337 6.97493C12.6577 7.04268 12.9448 7.22906 13.1385 7.49751C13.3806 8.10725 13.515 8.75441 13.5356 9.41014C13.5636 8.83592 13.6619 8.2673 13.8283 7.71699C14.0029 7.47091 14.258 7.29349 14.5494 7.21532C14.8949 7.15215 15.2491 7.15215 15.5946 7.21532C15.8779 7.31004 16.1258 7.48864 16.3053 7.72744C16.5266 8.28174 16.6606 8.86702 16.7024 9.4624C16.7024 9.60872 16.7756 9.05479 17.0055 8.68899C17.125 8.33426 17.4247 8.07022 17.7916 7.99634C18.1586 7.92245 18.5371 8.04994 18.7845 8.33079C19.032 8.61163 19.1108 9.00316 18.9913 9.35788C18.9913 10.0372 18.9913 10.0059 18.9913 10.4657C18.9913 10.9256 18.9913 11.3332 18.9913 11.7199C18.9532 12.3315 18.8694 12.9394 18.7405 13.5385C18.5586 14.0685 18.3054 14.5713 17.988 15.0331C17.4805 15.5974 17.0612 16.2352 16.7442 16.9248C16.6656 17.2674 16.6305 17.6186 16.6397 17.9699C16.6387 18.2946 16.6809 18.618 16.7651 18.9315C16.3378 18.9767 15.9069 18.9767 15.4796 18.9315C15.072 18.8688 14.5703 18.0536 14.4345 17.8027C14.3672 17.668 14.2296 17.5829 14.0791 17.5829C13.9286 17.5829 13.791 17.668 13.7237 17.8027C13.4938 18.1999 12.9817 18.921 12.6263 18.9628C11.9261 19.0465 10.4838 18.9628 9.34456 18.9628C9.34456 18.9628 9.53269 17.9177 9.10417 17.5414C8.67566 17.1652 8.2367 16.7262 7.9127 16.4336L7.03477 15.4302Z" stroke="#0F0F0F" stroke-width="0.75" stroke-linecap="round" stroke-linejoin="round"/>
<path d="M15.8977 16.0007V12.393C15.8977 12.1771 15.7222 12.002 15.5058 12.002C15.2893 12.002 15.1138 12.1771 15.1138 12.393V16.0007C15.1138 16.2166 15.2893 16.3917 15.5058 16.3917C15.7222 16.3917 15.8977 16.2166 15.8977 16.0007Z" fill="#0F0F0F"/>
<path d="M13.8283 15.9994L13.8074 12.3899C13.8061 12.1744 13.6296 12.0008 13.4132 12.002C13.1967 12.0033 13.0223 12.1789 13.0235 12.3944L13.0444 16.0039C13.0457 16.2193 13.2221 16.3929 13.4386 16.3917C13.655 16.3904 13.8295 16.2148 13.8283 15.9994Z" fill="#0F0F0F"/>
<path d="M10.9332 12.3981L10.9541 16.0002C10.9553 16.2177 11.1318 16.3929 11.3483 16.3917C11.5647 16.3904 11.7392 16.2131 11.7379 15.9956L11.717 12.3935C11.7158 12.1761 11.5393 12.0008 11.3228 12.002C11.1064 12.0033 10.9319 12.1807 10.9332 12.3981Z" fill="#0F0F0F"/>
</g>
<defs>
<filter id="filter0_d_12_9065" x="2.825" y="2.62499" width="17.3961" height="18.55" filterUnits="userSpaceOnUse" color-interpolation-filters="sRGB">
<feFlood flood-opacity="0" result="BackgroundImageFix"/>
<feColorMatrix in="SourceAlpha" type="matrix" values="0 0 0 0 0 0 0 0 0 0 0 0 0 0 0 0 0 0 127 0" result="hardAlpha"/>
<feOffset dy="1"/>
<feGaussianBlur stdDeviation="0.4"/>
<feColorMatrix type="matrix" values="0 0 0 0 0 0 0 0 0 0 0 0 0 0 0 0 0 0 0.5 0"/>
<feBlend mode="normal" in2="BackgroundImageFix" result="effect1_dropShadow_12_9065"/>
<feBlend mode="normal" in="SourceGraphic" in2="effect1_dropShadow_12_9065" result="shape"/>
</filter>
</defs>
</svg>
